<svg id="Gradient" height="512" viewBox="0 0 512 512" width="512" xmlns="http://www.w3.org/2000/svg" xmlns:xlink="http://www.w3.org/1999/xlink"><linearGradient id="linear-gradient" gradientUnits="userSpaceOnUse" x1="256" x2="256" y1="496" y2="16.003"><stop offset="0" stop-color="#12c2e9"/><stop offset=".5" stop-color="#c471ed"/><stop offset="1" stop-color="#f64f59"/></linearGradient><path d="m176 240a112 112 0 1 0 112 112 112.126 112.126 0 0 0 -112-112zm0 208a96 96 0 1 1 96-96 96.1 96.1 0 0 1 -96 96zm216-48a32 32 0 1 0 32 32 32.032 32.032 0 0 0 -32-32zm0 48a16 16 0 1 1 16-16 16.021 16.021 0 0 1 -16 16zm-288-240h-32a40.047 40.047 0 0 0 -40 40v208a40.047 40.047 0 0 0 40 40h368a40.047 40.047 0 0 0 40-40v-208a40.047 40.047 0 0 0 -40-40h-13.681l-302.046-190.766a8 8 0 0 0 -8.546 13.532l280.621 177.234h-196.348v-24a8 8 0 0 0 -8-8h-80a8 8 0 0 0 -8 8zm-56 248v-208a24.027 24.027 0 0 1 24-24h232v256h-232a24.027 24.027 0 0 1 -24-24zm416-208v208a24.027 24.027 0 0 1 -24 24h-120v-256h120a24.027 24.027 0 0 1 24 24zm-280-40h-24v-16h24zm-64-16h24v16h-24zm56 120a40 40 0 1 0 40 40 40.047 40.047 0 0 0 -40-40zm0 64a24 24 0 1 1 24-24 24.027 24.027 0 0 1 -24 24zm168-128v128a8 8 0 0 0 8 8h80a8 8 0 0 0 8-8v-128a8 8 0 0 0 -8-8h-80a8 8 0 0 0 -8 8zm16 8h64v112h-64v-16h40a8 8 0 0 0 0-16h-40zm16 24a8 8 0 0 1 8-8h16a8 8 0 0 1 0 16h-16a8 8 0 0 1 -8-8zm24 40h-16a8 8 0 0 1 0-16h16a8 8 0 0 1 0 16z" fill="url(#linear-gradient)"/></svg>